<?xml version="1.0" encoding="utf-8"?>
<!-- Generator: Adobe Illustrator 24.3.0, SVG Export Plug-In . SVG Version: 6.00 Build 0)  -->
<svg version="1.1" id="レイヤー_1" xmlns="http://www.w3.org/2000/svg" xmlns:xlink="http://www.w3.org/1999/xlink" x="0px"
	 y="0px" viewBox="0 0 100 100" style="enable-background:new 0 0 100 100;" xml:space="preserve" fill='#777777'>
<g>
	<circle cx="42" cy="87.6" r="6"/>
	<circle cx="79.5" cy="87.6" r="6"/>
	<path d="M40.8,77.5c-6,0-11.2-4.3-12.3-10.2l-6.8-34.1c0-0.1-0.1-0.2-0.1-0.4l-3.3-16.6H5.6c-2.5,0-4.5-2-4.5-4.5s2-4.5,4.5-4.5H22
		c2.1,0,4,1.5,4.4,3.6l3.4,16.8h65.8c1.3,0,2.6,0.6,3.5,1.6c0.9,1,1.2,2.4,1,3.7l-6.5,34.3c-1.2,6-6.4,10.2-12.4,10.2
		c-0.1,0-0.2,0-0.2,0l-39.6,0C41,77.5,40.9,77.5,40.8,77.5z M31.5,36.6l5.8,28.9c0.3,1.8,1.8,3,3.7,3l39.8,0c1.9,0,3.4-1.2,3.8-3
		l5.5-28.9H31.5z"/>
</g>
</svg>
