<?xml version="1.0" encoding="utf-8"?>
<!-- Generator: Adobe Illustrator 24.3.0, SVG Export Plug-In . SVG Version: 6.00 Build 0)  -->
<svg version="1.1" id="レイヤー_1" xmlns="http://www.w3.org/2000/svg" xmlns:xlink="http://www.w3.org/1999/xlink" x="0px"
	 y="0px" viewBox="0 0 100 100" style="enable-background:new 0 0 100 100;" xml:space="preserve" fill='#777777'>
<path d="M50,92.6c-1.1,0-2.1-0.4-3-1.1L8.9,57.7c-0.1-0.1-0.1-0.1-0.2-0.2c-5.3-5.3-8.3-12.4-8.3-20s2.9-14.6,8.3-20
	c5.3-5.3,12.4-8.3,20-8.3s14.6,2.9,20,8.3L50,19l1.4-1.4c0,0,0,0,0.1-0.1c5.3-5.3,12.4-8.2,19.9-8.2c0,0,0,0,0,0
	c7.5,0,14.6,2.9,19.9,8.3c0,0,0,0,0,0l0,0c5.3,5.3,8.3,12.4,8.3,20c0,7.5-2.9,14.6-8.3,19.9c-0.1,0.1-0.1,0.1-0.2,0.2L53,91.5
	C52.1,92.3,51.1,92.6,50,92.6z M15,51.1l35,31.1l35-31.1c3.6-3.6,5.5-8.4,5.5-13.5c0-5.1-2-10-5.6-13.6c0,0,0,0,0,0c0,0,0,0,0,0
	c-3.6-3.6-8.5-5.6-13.6-5.6c0,0,0,0,0,0c-5.1,0-10,2-13.6,5.6c0,0,0,0-0.1,0.1l-4.5,4.5c-1.8,1.8-4.6,1.8-6.4,0L42.2,24
	c-3.6-3.6-8.5-5.6-13.6-5.6c-5.1,0-10,2-13.6,5.6c-3.6,3.6-5.6,8.5-5.6,13.6C9.4,42.7,11.4,47.5,15,51.1z"/>
</svg>
